<svg width="21" height="21" viewBox="0 0 21 21" fill="none" xmlns="http://www.w3.org/2000/svg">
<path d="M10.5 21C4.70715 21 0 16.2854 0 10.5C0 4.71459 4.70715 0 10.5 0C16.2928 0 21 4.70715 21 10.5C21 16.2928 16.2928 21 10.5 21ZM10.5 1.85907C5.73336 1.85907 1.85907 5.73336 1.85907 10.5C1.85907 15.2666 5.73336 19.1409 10.5 19.1409C15.2666 19.1409 19.1409 15.2666 19.1409 10.5C19.1409 5.73336 15.2592 1.85907 10.5 1.85907Z" fill="#D8B75A"/>
<path d="M15.0211 15.1626L9.57031 10.9536V4.44692C9.57031 4.2387 9.73391 4.0751 9.94213 4.0751H11.0576C11.2658 4.0751 11.4294 4.2387 11.4294 4.44692V10.0464L16.1588 13.6976C16.3224 13.824 16.3522 14.0546 16.2258 14.2182L15.5416 15.1031C15.4152 15.2667 15.1847 15.2964 15.0211 15.17V15.1626Z" fill="#D8B75A"/>
</svg>
