<svg width="50" height="51" viewBox="0 0 50 51" fill="none" xmlns="http://www.w3.org/2000/svg">
<path d="M48.5343 17.4161C48.5343 14.8999 46.4847 12.8443 43.9392 12.8443H34.65C34.7491 12.7621 34.8483 12.6963 34.9475 12.6141C38.6004 9.39079 39.7409 5.09859 37.6913 2.38513C36.8648 1.29974 35.5425 0.641932 34.0384 0.559706C31.7409 0.428144 29.2781 1.64509 27.0797 3.94742C25.4433 5.67417 24.6334 7.9765 24.2367 9.9006C23.84 7.9765 23.0301 5.67417 21.3938 3.94742C19.1954 1.64509 16.7326 0.428144 14.4351 0.559706C12.9309 0.641932 11.6086 1.31619 10.7822 2.38513C8.7326 5.09859 9.88962 9.39079 13.526 12.6141C13.6252 12.6963 13.7243 12.7621 13.8235 12.8443H5.14582C2.6169 12.8443 0.550781 14.8999 0.550781 17.4161V25.1124H4.00533V44.896C4.00533 47.4615 6.1045 49.55 8.68301 49.55H40.4185C42.9971 49.55 45.0962 47.4615 45.0962 44.896V25.1124H48.5508V17.4161H48.5343ZM33.9227 2.84559C34.7491 2.89493 35.4433 3.22383 35.8566 3.76653C37.1458 5.46038 36.1045 8.53564 33.4268 10.8873C31.3276 12.7292 27.9557 12.7127 26.2202 12.5483C26.3359 10.8709 26.8152 7.56537 28.7657 5.50972C30.4847 3.6843 32.3028 2.74692 33.9062 2.82915L33.9227 2.84559ZM6.30285 25.1124H23.3772V47.2477H8.66648C7.3607 47.2477 6.30285 46.1952 6.30285 44.896V25.1124ZM23.3938 15.1302V22.8101H2.86483V17.3996C2.86483 16.1498 3.88962 15.1137 5.16235 15.1137H23.4103L23.3938 15.1302ZM25.6913 25.1124H42.7657V44.896C42.7657 46.1952 41.7078 47.2477 40.402 47.2477H25.6913V25.1124ZM25.6913 15.1302H43.9392C45.1954 15.1302 46.2202 16.1498 46.2202 17.4161V22.8265H25.6913V15.1466V15.1302ZM14.7822 2.84559C16.3359 2.84559 18.088 3.79942 19.7243 5.52617C21.6747 7.58182 22.1541 10.8709 22.2698 12.5647C20.5508 12.7292 17.1623 12.7456 15.0632 10.9038C12.3855 8.53564 11.3442 5.47683 12.6334 3.78297C13.0466 3.24028 13.7409 2.91137 14.5673 2.86204C14.6334 2.86204 14.6995 2.86204 14.7657 2.86204L14.7822 2.84559Z" fill="#D8B75A" stroke="#D8B75A" stroke-width="1.1" stroke-miterlimit="10"/>
</svg>
