<svg width="15" height="21" viewBox="0 0 15 21" fill="none" xmlns="http://www.w3.org/2000/svg">
<path d="M7.49655 0C3.36243 0 0 3.36525 0 7.50444C0 11.6436 6.76619 20.0671 6.8282 20.15L7.49655 21L8.16491 20.15C8.23381 20.0671 15 11.5538 15 7.49753C15 3.44126 11.6307 0 7.49655 0ZM13.2912 7.50444C13.2912 9.68806 10.3353 14.4215 7.49655 18.2152C4.65779 14.4215 1.70188 9.68806 1.70188 7.50444C1.70188 4.30503 4.29949 1.6999 7.49655 1.6999C10.6936 1.6999 13.2912 4.30503 13.2912 7.50444Z" fill="#D8B75A"/>
<path d="M7.49616 3.83514C5.50489 3.83514 3.89258 5.45903 3.89258 7.45607C3.89258 9.45311 5.51178 11.0701 7.49616 11.0701C9.48054 11.0701 11.0997 9.4462 11.0997 7.45607C11.0997 5.46594 9.48054 3.83514 7.49616 3.83514ZM9.39786 7.45607C9.39786 8.51333 8.54347 9.37019 7.49616 9.37019C6.44885 9.37019 5.59446 8.51333 5.59446 7.45607C5.59446 6.39882 6.44885 5.54196 7.49616 5.54196C8.54347 5.54196 9.39786 6.39882 9.39786 7.45607Z" fill="#D8B75A"/>
</svg>
