<svg width="22" height="18" viewBox="0 0 22 18" fill="none" xmlns="http://www.w3.org/2000/svg">
<g clip-path="url(#clip0_4059_2125)">
<path d="M19.1096 0H2.8904C2.04425 0 1.24302 0.365637 0.688904 1.0055C0.239619 1.52349 0 2.16335 0 2.84892V15.1435C0 15.4329 0.0449285 15.73 0.127297 15.9738L0.172226 16.1261C0.591559 17.2459 1.68482 18 2.8904 18H19.1096C20.3376 18 21.4309 17.2306 21.8502 16.0499L21.8652 15.989C21.9551 15.7148 21.9925 15.4329 21.9925 15.1511V2.84892C21.9925 1.69869 21.0715 0 19.1021 0H19.1096ZM14.0252 8.562L20.128 2.93271V14.2751L14.0252 8.55438V8.562ZM1.87202 14.3055V2.87177L7.89993 8.562L1.87202 14.3055ZM3.59428 1.90436H18.4581L10.9401 8.83623L3.59428 1.90436ZM2.8904 16.0956C2.84547 16.0956 2.80054 16.0804 2.75562 16.0728L9.27774 9.85696L10.2212 10.7482C10.4309 10.9386 10.6855 11.0377 10.9401 11.0377C11.1947 11.0377 11.4493 10.9386 11.6664 10.7406L12.6399 9.84934L19.2743 16.0728C19.2219 16.0804 19.1695 16.0956 19.1096 16.0956H2.8904Z" fill="#D8B75A"/>
</g>
<defs>
<clipPath id="clip0_4059_2125">
<rect width="22" height="18" fill="white"/>
</clipPath>
</defs>
</svg>
