<svg width="28" height="28" viewBox="0 0 28 28" fill="none" xmlns="http://www.w3.org/2000/svg">
<path d="M13.9948 0C6.25919 0 0 6.26959 0 13.9948C0 21.72 6.25919 28 13.9948 28C21.7304 28 28 21.7304 28 13.9948C28 6.25919 21.7304 0 13.9948 0ZM21.4705 18.8711L20.909 19.5158C19.9629 20.5867 18.9959 21.1378 17.977 21.2105C17.5507 21.2313 17.0932 21.169 16.6357 21.0234C15.2321 20.5555 13.7869 19.2766 12.3832 18.0394L10.1062 16.0431C7.26773 13.5373 4.57482 11.1771 7.57965 7.7668L8.14111 7.13257C8.34905 6.90382 8.62978 6.77906 8.92091 6.77906C9.12885 6.77906 9.3472 6.85184 9.51355 6.9974L11.6554 8.86892C11.8426 9.02488 11.9465 9.25362 11.9673 9.49276C11.9881 9.76309 11.8841 10.0438 11.697 10.2518L10.8756 11.1771C10.6053 11.489 10.6157 11.9361 10.8756 12.1753L16.2198 16.8957C16.3446 17.01 16.5214 17.062 16.6773 17.0516C16.8853 17.0412 17.062 16.9372 17.2076 16.7917L18.029 15.8559C18.2057 15.6584 18.4449 15.5232 18.7048 15.5024C18.9647 15.4608 19.2143 15.544 19.4118 15.7208L21.4185 17.4883C21.6056 17.6443 21.72 17.8938 21.72 18.1537C21.72 18.4137 21.6264 18.6736 21.4601 18.8711H21.4705Z" fill="#D8B75A"/>
</svg>
