<svg width="28" height="28" viewBox="0 0 28 28" fill="none" xmlns="http://www.w3.org/2000/svg">
<path d="M16.4134 12.5725C16.136 11.987 15.6635 11.5145 15.0883 11.2372C14.7083 11.0523 14.2769 10.9496 13.8249 10.9496C13.373 10.9496 12.9518 11.0523 12.5718 11.2372C11.9966 11.5145 11.5241 11.987 11.2365 12.5725C11.0516 12.9525 10.9489 13.3737 10.9489 13.8256C10.9489 14.2776 11.0516 14.6987 11.2365 15.089C11.5241 15.6642 11.9966 16.1367 12.5718 16.4141C12.9518 16.6092 13.3832 16.7017 13.8249 16.7017C14.2666 16.7017 14.7083 16.6092 15.0883 16.4141C16.0539 15.9519 16.7215 14.9555 16.7215 13.8256C16.7215 13.3737 16.6188 12.9525 16.4236 12.5725H16.4134ZM16.4134 12.5725C16.136 11.987 15.6635 11.5145 15.0883 11.2372C14.7083 11.0523 14.2769 10.9496 13.8249 10.9496C13.373 10.9496 12.9518 11.0523 12.5718 11.2372C11.9966 11.5145 11.5241 11.987 11.2365 12.5725C11.0516 12.9525 10.9489 13.3737 10.9489 13.8256C10.9489 14.2776 11.0516 14.6987 11.2365 15.089C11.5241 15.6642 11.9966 16.1367 12.5718 16.4141C12.9518 16.6092 13.3832 16.7017 13.8249 16.7017C14.2666 16.7017 14.7083 16.6092 15.0883 16.4141C16.0539 15.9519 16.7215 14.9555 16.7215 13.8256C16.7215 13.3737 16.6188 12.9525 16.4236 12.5725H16.4134ZM20.1214 7.61128C20.1214 7.61128 20.0701 7.55992 20.0495 7.53938C19.4641 6.97444 18.6731 6.61493 17.8 6.61493H9.87033C8.99724 6.61493 8.20633 6.97444 7.62084 7.53938C7.6003 7.55992 7.56949 7.58046 7.54894 7.61128C6.984 8.18649 6.63477 8.98768 6.63477 9.86077V17.7905C6.63477 19.5777 8.09334 21.026 9.87033 21.026H17.8C18.6731 21.026 19.4641 20.6768 20.0495 20.1119C20.6556 19.5264 21.0356 18.6944 21.0356 17.7905V9.86077C21.0356 8.98768 20.6864 8.18649 20.1214 7.61128ZM17.9644 15.089C17.8719 15.3869 17.7487 15.6642 17.5946 15.9416C16.8551 17.2666 15.4376 18.1603 13.8146 18.1603C13.3832 18.1603 12.9621 18.0884 12.5615 17.9754C12.2636 17.8829 11.976 17.7494 11.709 17.6056C11.0105 17.2153 10.425 16.6298 10.045 15.9416C9.89088 15.6745 9.77789 15.3972 9.67517 15.089C9.56218 14.6884 9.49028 14.2673 9.49028 13.8256C9.49028 13.3839 9.56218 12.9731 9.67517 12.5725C9.76762 12.2746 9.89088 11.987 10.045 11.7199C10.4353 11.0215 11.0105 10.4463 11.709 10.0662C12.3253 9.70669 13.0443 9.52181 13.8044 9.52181C14.5645 9.52181 15.2835 9.71697 15.9101 10.0662C16.6085 10.4565 17.194 11.0317 17.5741 11.7199C17.7281 11.987 17.8411 12.2746 17.9438 12.5725C18.0568 12.9628 18.1287 13.3942 18.1287 13.8256C18.1287 14.257 18.0568 14.6782 17.9438 15.089H17.9644ZM18.4163 10.2203C17.8719 10.2203 17.42 9.7786 17.42 9.2342C17.42 8.6898 17.8617 8.23785 18.4163 8.23785C18.971 8.23785 19.4127 8.67953 19.4127 9.2342C19.4127 9.78887 18.971 10.2203 18.4163 10.2203ZM15.0883 11.2372C14.7083 11.0523 14.2769 10.9496 13.8249 10.9496C13.373 10.9496 12.9518 11.0523 12.5718 11.2372C11.9966 11.5145 11.5241 11.987 11.2365 12.5725C11.0516 12.9525 10.9489 13.3737 10.9489 13.8256C10.9489 14.2776 11.0516 14.6987 11.2365 15.089C11.5241 15.6642 11.9966 16.1367 12.5718 16.4141C12.9518 16.6092 13.3832 16.7017 13.8249 16.7017C14.2666 16.7017 14.7083 16.6092 15.0883 16.4141C16.0539 15.9519 16.7215 14.9555 16.7215 13.8256C16.7215 13.3737 16.6188 12.9525 16.4236 12.5725C16.1463 11.987 15.6738 11.5145 15.0986 11.2372H15.0883Z" fill="#D8B75A"/>
<path d="M13.8256 0C6.1938 0 0 6.18353 0 13.8256C0 21.4677 6.1938 27.6615 13.8256 27.6615C21.4575 27.6615 27.6615 21.4677 27.6615 13.8256C27.6615 6.18353 21.4677 0 13.8256 0ZM22.4744 17.7905C22.4744 18.6328 22.2381 19.4237 21.8581 20.1119C21.4369 20.8309 20.8412 21.4369 20.1119 21.8478C19.4237 22.2381 18.6328 22.4744 17.7905 22.4744H9.86078C9.00823 22.4744 8.22759 22.2381 7.53939 21.8478C6.82037 21.4369 6.21434 20.8412 5.79321 20.1119C5.40288 19.4237 5.17691 18.6328 5.17691 17.7905V9.86078C5.17691 9.00823 5.41316 8.22759 5.79321 7.53939C6.20407 6.82037 6.8101 6.21434 7.53939 5.79321C8.22759 5.40288 9.0185 5.17691 9.86078 5.17691H17.7905C18.643 5.17691 19.4237 5.40288 20.1119 5.79321C20.8309 6.20407 21.4369 6.8101 21.8581 7.53939C22.2484 8.22759 22.4744 9.0185 22.4744 9.86078V17.7905Z" fill="#D8B75A"/>
</svg>
