<svg width="27" height="27" viewBox="0 0 27 27" fill="none" xmlns="http://www.w3.org/2000/svg">
<path d="M13.3896 0C5.994 0 0 5.994 0 13.3796C0 20.7653 5.994 26.7692 13.3896 26.7692C20.7852 26.7692 26.7692 20.7752 26.7692 13.3796C26.7692 5.98406 20.7752 0 13.3896 0ZM18.32 19.2444C18.151 20.2285 17.4353 20.4074 16.3617 19.821C15.3081 19.2444 11.8588 16.8587 11.8588 16.8587C11.8588 16.8587 10.815 16.2425 11.9284 15.2385C13.0417 14.2246 16.7792 11.3021 16.3419 10.9542C16.0039 10.6759 10.8349 14.5029 9.46317 14.9999C8.90651 15.1987 8.76735 15.4472 7.77332 15.1689C6.79917 14.9005 6.36179 14.811 5.52681 14.4731C4.83099 14.2047 4.49302 13.5884 5.87472 12.982C10.994 10.7355 17.2265 8.19081 18.1609 7.86278C18.7971 7.63415 20.0098 7.04767 19.9303 8.38961C19.8508 9.73155 18.7275 16.809 18.31 19.2444H18.32Z" fill="#D8B75A"/>
</svg>
