<svg width="38" height="38" viewBox="0 0 38 38" fill="none" xmlns="http://www.w3.org/2000/svg">
<path d="M24.6234 19.2184C24.5529 21.0387 23.424 22.7884 21.8013 23.6209C20.4325 24.3123 18.3583 24.4958 16.5803 23.3105C16.2981 23.6068 16.0018 23.889 15.7196 24.1712C15.5644 24.3264 15.395 24.4675 15.1975 24.4393C14.9435 24.4111 14.8588 24.1289 14.7601 23.9031C13.2643 20.1215 13.7723 16.0576 16.8767 14.4631C18.5276 13.6164 20.5878 13.6164 22.1823 14.6042C23.7344 15.5637 24.7081 17.3981 24.6234 19.2184Z" fill="#D8B75A"/>
<path d="M18.9929 0C8.49462 0 0 8.49462 0 18.9788C0 29.4631 8.49462 38 18.9929 38C29.4913 38 38 29.4772 38 18.9788C38 8.4805 29.4913 0 18.9929 0ZM19.5433 29.2373C17.85 29.2373 16.1849 28.6305 15.0702 27.7839C14.0542 28.7293 13.0947 29.1667 11.8953 29.2655H11.8671C11.0769 29.2514 10.5265 28.9974 10.5407 27.7133C10.5407 27.417 10.5548 27.0219 10.3854 26.1612C10.1456 25.0323 9.86335 24.0163 9.84924 23.974C9.1296 21.5329 9.17193 19.4586 9.17193 19.4586V19.0071C9.17193 13.1652 14.026 8.46639 19.9242 8.74861C25.1593 8.98849 29.4631 13.2922 29.7029 18.5273C29.971 24.4255 25.371 29.2373 19.5433 29.2373Z" fill="#D8B75A"/>
</svg>
