<svg width="28" height="28" viewBox="0 0 28 28" fill="none" xmlns="http://www.w3.org/2000/svg">
<path d="M13.8308 0C6.1915 0 0 6.1938 0 13.8359C0 21.478 6.1915 27.6615 13.8308 27.6615C21.47 27.6615 27.6615 21.478 27.6615 13.8359C27.6615 6.1938 21.47 0 13.8308 0ZM20.6178 16.7428C22.0656 18.0884 22.3736 18.7458 22.4147 18.8279C23.0205 19.8243 21.7473 19.8962 21.7473 19.8962L19.3241 19.9373C19.3241 19.9373 18.8107 20.04 18.1227 19.5675C17.2089 18.9409 16.3567 17.3283 15.6892 17.5337C15.0116 17.7494 15.0321 19.208 15.0321 19.208C15.0321 19.208 15.0424 19.5161 14.8884 19.6805C14.7241 19.8654 14.3955 19.8962 14.3955 19.8962H13.3071C13.3071 19.8962 10.9147 20.04 8.79953 17.8521C6.49954 15.4486 4.47677 10.7031 4.47677 10.7031C4.47677 10.7031 4.35356 10.3846 4.48704 10.2408C4.63079 10.0662 5.0107 10.0559 5.0107 10.0559L7.60846 10.0354C7.60846 10.0354 7.85489 10.0765 8.02944 10.21C8.17319 10.3127 8.25534 10.5182 8.25534 10.5182C8.25534 10.5182 8.67632 11.5761 9.23078 12.5314C10.3089 14.4111 10.8223 14.822 11.1817 14.6165C11.7259 14.3289 11.5616 11.9665 11.5616 11.9665C11.5616 11.9665 11.5718 11.1139 11.2946 10.7339C11.079 10.436 10.6683 10.3538 10.4835 10.323C10.3397 10.3025 10.5759 9.9635 10.8942 9.81969C11.3562 9.58344 12.1776 9.57317 13.1531 9.58344C13.9129 9.59372 14.1285 9.6348 14.4263 9.7067C15.3196 9.92241 15.0218 10.7647 15.0218 12.7677C15.0218 13.4045 14.9089 14.3084 15.3709 14.6063C15.566 14.7295 16.0486 14.6268 17.2705 12.5622C17.8455 11.5761 18.2767 10.4257 18.2767 10.4257C18.2767 10.4257 18.3692 10.2203 18.5129 10.1381C18.6669 10.0457 18.8723 10.0765 18.8723 10.0765L21.6035 10.0559C21.6035 10.0559 22.4147 9.9635 22.5482 10.3333C22.6919 10.7133 22.2504 11.6275 21.1312 13.1169C19.3035 15.5513 19.0982 15.3253 20.6178 16.7428Z" fill="#D8B75A"/>
</svg>
