<svg width="11" height="11" viewBox="0 0 11 11" fill="none" xmlns="http://www.w3.org/2000/svg">
<g clip-path="url(#clip0_6142_2879)">
<path d="M3.62943 10.7077L1.92249 9.7129C2.4002 8.92912 2.88374 8.15136 3.3731 7.37361C3.86246 6.59585 4.34599 5.8181 4.82953 5.04035C5.20238 4.19024 5.58105 3.34617 5.94807 2.51415C6.32092 1.68213 6.69376 0.844088 7.06661 0.00604248L8.79103 1.00687C8.30167 1.7786 7.8123 2.55635 7.32877 3.33411C6.84523 4.11186 6.3617 4.88962 5.87816 5.65531C5.50532 6.49336 5.13247 7.33743 4.75962 8.18151C4.38678 9.02558 4.01393 9.86966 3.63526 10.7137L3.62943 10.7077ZM10.6902 6.44513C9.79888 6.36675 8.91337 6.28837 8.02786 6.20999C7.14235 6.13161 6.25101 6.05324 5.35385 5.98089C4.46251 6.03515 3.57117 6.08338 2.67401 6.13764C1.77685 6.19191 0.885511 6.24617 0 6.30646V4.26862C0.897162 4.34097 1.7885 4.41935 2.67401 4.49773C3.55952 4.5761 4.45086 4.65448 5.35385 4.73889C6.23936 4.6786 7.13069 4.62434 8.02786 4.57008C8.92502 4.51581 9.81636 4.46758 10.7077 4.41332L10.6902 6.44513ZM7.18895 10.6534C6.7928 9.82143 6.39665 8.98941 6.00633 8.16342C5.616 7.33141 5.21985 6.49939 4.81788 5.66134C4.31687 4.90168 3.81585 4.14201 3.30901 3.37631C2.80218 2.61062 2.29534 1.85095 1.80015 1.09128L3.51292 0.0482462C3.89741 0.874234 4.28774 1.70625 4.68389 2.53827C5.08004 3.37028 5.47619 4.19627 5.86651 5.02226C6.37335 5.79398 6.88019 6.56571 7.38703 7.32538C7.89387 8.08504 8.39488 8.85074 8.90172 9.61644L7.18895 10.6474V10.6534Z" fill="#D8B75A"/>
</g>
<defs>
<clipPath id="clip0_6142_2879">
<rect width="10.7077" height="10.7077" fill="white"/>
</clipPath>
</defs>
</svg>
