<svg width="28" height="29" viewBox="0 0 28 29" fill="none" xmlns="http://www.w3.org/2000/svg">
<path d="M13.7416 0C6.15818 0 0 6.08146 0 13.568C0 16.1683 0.744512 18.6953 2.16972 20.8867L0.393528 28.2369L8.38108 26.0349C10.0935 26.7479 11.8909 27.1149 13.7416 27.1149C21.325 27.1149 27.4938 21.0335 27.4938 13.568C27.4938 6.10243 21.325 0 13.7416 0ZM21.7504 18.3492L21.1761 18.9993C20.2082 20.0793 19.2191 20.635 18.1767 20.7084C17.7407 20.7294 17.2727 20.6665 16.8047 20.5197C15.3689 20.0479 13.8905 18.7582 12.4546 17.5104L10.1254 15.4972C7.22177 12.9703 4.46707 10.5901 7.54085 7.15096L8.11519 6.51136C8.3279 6.28068 8.61507 6.15486 8.91288 6.15486C9.1256 6.15486 9.34895 6.22826 9.51912 6.37505L11.7101 8.2624C11.9016 8.41968 12.0079 8.65036 12.0292 8.89152C12.0505 9.16413 11.9441 9.44724 11.7527 9.65694L10.9124 10.5901C10.6359 10.9047 10.6465 11.3556 10.9231 11.5967L16.3899 16.357C16.5175 16.4724 16.6984 16.5248 16.8579 16.5143C17.0706 16.5038 17.2514 16.399 17.4003 16.2522L18.2406 15.3085C18.4214 15.1093 18.666 14.973 18.9319 14.952C19.1978 14.9101 19.453 14.9939 19.6551 15.1722L21.7079 16.9547C21.8993 17.112 22.0163 17.3636 22.0163 17.6258C22.0269 17.8879 21.9206 18.15 21.7504 18.3492Z" fill="#D8B75A"/>
</svg>
