<svg width="29" height="29" viewBox="0 0 29 29" fill="none" xmlns="http://www.w3.org/2000/svg">
<path d="M18.2983 14.2825C18.2459 15.6353 17.407 16.9356 16.2011 17.5543C15.1839 18.0681 13.6424 18.2045 12.3211 17.3236C12.1113 17.5438 11.8911 17.7536 11.6814 17.9633C11.566 18.0786 11.4402 18.1835 11.2934 18.1625C11.1046 18.1416 11.0417 17.9318 10.9683 17.764C9.85675 14.9537 10.2343 11.9336 12.5413 10.7486C13.7682 10.1194 15.2992 10.1194 16.4842 10.8535C17.6377 11.5666 18.3613 12.9298 18.2983 14.2825Z" fill="#D8B75A"/>
<path d="M14.1148 0C6.31284 0 0 6.31284 0 14.1043C0 21.8957 6.31284 28.24 14.1148 28.24C21.9167 28.24 28.24 21.9062 28.24 14.1043C28.24 6.30235 21.9167 0 14.1148 0ZM14.5237 21.7279C13.2654 21.7279 12.028 21.277 11.1995 20.6478C10.4445 21.3504 9.73142 21.6755 8.84007 21.7489H8.8191C8.23186 21.7384 7.82289 21.5496 7.83338 20.5954C7.83338 20.3752 7.84386 20.0815 7.71802 19.4419C7.53976 18.603 7.33003 17.8479 7.31954 17.8165C6.78473 16.0023 6.81619 14.4608 6.81619 14.4608V14.1252C6.81619 9.78386 10.4235 6.29187 14.8069 6.5016C18.6973 6.67987 21.8957 9.87823 22.074 13.7687C22.2732 18.152 18.8546 21.7279 14.5237 21.7279Z" fill="#D8B75A"/>
</svg>
