<svg width="15" height="15" viewBox="0 0 15 15" fill="none" xmlns="http://www.w3.org/2000/svg">
<g clip-path="url(#clip0_4096_2001)">
<path d="M5.08433 14.9994L2.69314 13.6058C3.36235 12.5078 4.03972 11.4183 4.72524 10.3288C5.41077 9.23923 6.08814 8.1497 6.76551 7.06018C7.28781 5.8693 7.81828 4.68687 8.33243 3.52133C8.85473 2.35579 9.37704 1.1818 9.89935 0.0078125L12.315 1.40984C11.6295 2.49092 10.944 3.58045 10.2666 4.66997C9.58923 5.7595 8.91186 6.84903 8.23449 7.92166C7.71219 9.09565 7.18988 10.2781 6.66757 11.4605C6.14527 12.6429 5.62296 13.8254 5.09249 15.0078L5.08433 14.9994ZM14.9755 9.02808C13.7269 8.91829 12.4864 8.80849 11.2459 8.69869C10.0054 8.58889 8.7568 8.4791 7.5 8.37774C6.25136 8.45376 5.00272 8.52133 3.74592 8.59734C2.48912 8.67335 1.24048 8.74937 0 8.83383V5.9791C1.2568 6.08045 2.50544 6.19024 3.74592 6.30004C4.9864 6.40984 6.23504 6.51964 7.5 6.63788C8.74048 6.55342 9.98912 6.47741 11.2459 6.40139C12.5027 6.32538 13.7514 6.25781 15 6.1818L14.9755 9.02808ZM10.0707 14.9234C9.51578 13.7578 8.96083 12.5923 8.41404 11.4352C7.86725 10.2696 7.3123 9.1041 6.74918 7.93011C6.04733 6.86592 5.34548 5.80173 4.63547 4.7291C3.92546 3.65646 3.21545 2.59227 2.52176 1.52808L4.92111 0.0669341C5.45974 1.22403 6.00653 2.38957 6.56148 3.55511C7.11643 4.72065 7.67138 5.87774 8.21817 7.03484C8.92818 8.11592 9.63819 9.197 10.3482 10.2612C11.0582 11.3254 11.7601 12.398 12.4701 13.4706L10.0707 14.9149V14.9234Z" fill="#D8B75A"/>
</g>
<defs>
<clipPath id="clip0_4096_2001">
<rect width="15" height="15" fill="white"/>
</clipPath>
</defs>
</svg>
