<svg width="20" height="21" viewBox="0 0 20 21" fill="none" xmlns="http://www.w3.org/2000/svg">
<path d="M19.4748 15.241L17.1279 12.7587C16.7739 12.3921 16.3046 12.2012 15.7428 12.2012H15.7351C15.235 12.2241 14.7579 12.4456 14.3962 12.8275L13.3036 13.9808C13.2497 14.0343 13.1882 14.0572 13.0958 14.0419L6.83992 7.41986C6.79375 7.37403 6.79375 7.22127 6.90148 7.1067L7.99414 5.95338C8.3635 5.55621 8.57895 5.0292 8.57895 4.49455C8.57895 3.98281 8.38658 3.50926 8.04801 3.16556L5.5318 0.530492C4.83927 -0.202744 3.53884 -0.172193 2.80014 0.599233L2.05374 1.38593C-2.39387 6.07559 1.29195 9.95563 4.54686 13.385L7.22466 16.2111C8.90983 17.983 10.6489 19.8161 12.4802 20.5952C13.1189 20.8625 13.7576 21 14.3962 21C15.866 21 17.2664 20.282 18.6746 18.8079L19.4133 18.0212C19.7672 17.647 19.975 17.1581 19.9981 16.6464C20.0212 16.1041 19.8365 15.6 19.4748 15.2258V15.241ZM6.7245 4.71605L5.63183 5.86173C4.88543 6.65607 4.85466 7.90104 5.57027 8.64955L11.8262 15.2716C12.1494 15.6229 12.6187 15.8139 13.1266 15.8215H13.1343C13.6806 15.8215 14.1962 15.6 14.5655 15.2105L15.6659 14.0572C15.7121 14.0113 15.7659 13.9808 15.8044 13.9808L15.8736 14.0037L18.2283 16.4784C18.2283 16.4784 18.2667 16.5395 18.259 16.5777C18.259 16.6617 18.2206 16.7381 18.159 16.7992L17.4203 17.5782C15.9352 19.144 14.6271 19.5794 13.1728 18.9607C11.6646 18.3267 10.0487 16.6159 8.47892 14.9584L5.8242 12.1553C2.03065 8.16073 0.199286 5.92283 3.32339 2.63091L4.06978 1.84421C4.10826 1.79838 4.15443 1.77547 4.22368 1.77547C4.23907 1.77547 4.26215 1.77547 4.27754 1.77547L6.77836 4.38762C6.77836 4.38762 6.80914 4.45636 6.80914 4.49455C6.80914 4.57093 6.77067 4.65495 6.7168 4.71605H6.7245Z" fill="#D8B75A"/>
</svg>
