<svg width="210" height="147" viewBox="0 0 210 147" fill="none" xmlns="http://www.w3.org/2000/svg">
<path d="M2.05376 140.804C2.36062 140.624 2.7144 140.538 3.1079 140.538C3.2884 140.538 3.47612 140.556 3.66745 140.596C3.85879 140.632 4.05734 140.693 4.2595 140.772C4.46167 140.851 4.67105 140.959 4.88404 141.088L4.96707 140.164C4.85877 140.103 4.73242 140.046 4.58802 139.992C4.44361 139.938 4.28838 139.888 4.11871 139.841C3.94904 139.794 3.77215 139.758 3.58803 139.733C3.40392 139.708 3.21259 139.694 3.01765 139.694C2.41477 139.694 1.89131 139.827 1.44367 140.089C0.999631 140.351 0.653067 140.714 0.411193 141.178C0.16571 141.642 0.0429688 142.17 0.0429688 142.763C0.0429688 143.208 0.11517 143.618 0.255961 143.992C0.396753 144.366 0.602526 144.689 0.869669 144.962C1.13681 145.235 1.46172 145.447 1.84077 145.598C2.21983 145.749 2.64942 145.825 3.12595 145.825C3.2884 145.825 3.45446 145.818 3.61691 145.8C3.77937 145.782 3.94182 145.757 4.09705 145.724C4.25228 145.692 4.4039 145.649 4.5447 145.595C4.68549 145.541 4.81906 145.48 4.93819 145.412L4.8696 144.499C4.73964 144.589 4.60607 144.668 4.4725 144.736C4.33892 144.804 4.20174 144.854 4.06456 144.894C3.92738 144.934 3.7902 144.962 3.65301 144.98C3.51583 144.998 3.37504 145.005 3.23786 145.005C2.88046 145.005 2.56278 144.948 2.29203 144.829C2.02127 144.711 1.79384 144.549 1.61334 144.344C1.43284 144.139 1.29565 143.899 1.2054 143.629C1.11515 143.359 1.06822 143.072 1.06822 142.763C1.06822 142.299 1.15486 141.904 1.33176 141.57C1.50504 141.239 1.74691 140.98 2.05737 140.804H2.05376Z" fill="url(#paint0_linear_10025_2801)"/>
<path d="M16.5317 143.73L15.8278 141.692C15.7014 141.329 15.5859 141.002 15.4848 140.707C15.3837 140.412 15.279 140.114 15.1707 139.805H13.9C13.7953 140.103 13.6906 140.402 13.5859 140.696C13.4812 140.991 13.3657 141.322 13.2357 141.688L12.5282 143.722C12.4127 144.039 12.2971 144.373 12.1744 144.725C12.0517 145.077 11.9361 145.412 11.8242 145.731H12.8134C12.9253 145.397 13.0372 145.049 13.1563 144.693C13.196 144.571 13.2357 144.456 13.2755 144.337H15.77C15.8097 144.459 15.8458 144.574 15.8891 144.7C16.0047 145.052 16.113 145.397 16.2213 145.731H17.2393C17.131 145.415 17.0155 145.084 16.8963 144.739C16.7736 144.394 16.6581 144.06 16.5426 143.733L16.5317 143.73ZM13.5101 143.586L14.4812 140.66H14.5642L15.5137 143.586H13.5101Z" fill="url(#paint1_linear_10025_2801)"/>
<path d="M25.1528 141.013C25.1311 141.419 25.1095 141.818 25.0842 142.217C25.0481 142.842 24.9975 143.356 24.9398 143.762C24.8784 144.168 24.7845 144.463 24.6582 144.657C24.5318 144.851 24.3513 144.944 24.1239 144.944C24.0806 144.944 24.0373 144.944 23.9903 144.937C23.9434 144.93 23.8893 144.923 23.8279 144.912L23.7773 145.742C23.8279 145.753 23.882 145.764 23.9434 145.774C24.0048 145.785 24.0698 145.792 24.142 145.8C24.2142 145.807 24.2864 145.81 24.3622 145.81C24.6979 145.81 24.9614 145.746 25.16 145.613C25.3585 145.48 25.5066 145.279 25.6112 145.009C25.7159 144.739 25.7917 144.405 25.8423 143.999C25.8892 143.597 25.9325 143.122 25.9686 142.583C25.9975 142.13 26.03 141.692 26.0553 141.268C26.0697 141.056 26.0842 140.844 26.0986 140.632H28.2755V145.728H29.2574V139.805H25.2286C25.2033 140.208 25.178 140.61 25.1564 141.013H25.1528Z" fill="url(#paint2_linear_10025_2801)"/>
<path d="M41.8404 140.589C41.5877 140.308 41.27 140.089 40.8946 139.931C40.5191 139.773 40.0823 139.694 39.5877 139.694C38.9343 139.694 38.382 139.83 37.9343 140.103C37.4867 140.377 37.1437 140.743 36.9127 141.207C36.6816 141.67 36.5625 142.188 36.5625 142.763C36.5625 143.173 36.6275 143.561 36.7502 143.931C36.8766 144.297 37.0643 144.628 37.317 144.912C37.5697 145.196 37.8874 145.422 38.2701 145.584C38.6527 145.749 39.1004 145.828 39.6202 145.828C40.2556 145.828 40.7935 145.695 41.2411 145.426C41.6888 145.16 42.0281 144.793 42.2628 144.333C42.4974 143.87 42.6129 143.349 42.6129 142.763C42.6129 142.339 42.548 141.936 42.4216 141.566C42.2953 141.196 42.1039 140.869 41.8476 140.589H41.8404ZM41.4686 143.604C41.3891 143.873 41.2664 144.111 41.1039 144.323C40.9415 144.535 40.7321 144.7 40.483 144.822C40.2339 144.944 39.9379 145.005 39.5949 145.005C39.252 145.005 38.956 144.944 38.7033 144.826C38.4506 144.704 38.2412 144.542 38.0751 144.333C37.909 144.125 37.7863 143.884 37.7069 143.618C37.6275 143.349 37.5841 143.065 37.5841 142.766C37.5841 142.468 37.6239 142.181 37.7105 141.911C37.7935 141.642 37.9199 141.404 38.0896 141.192C38.2556 140.98 38.4686 140.819 38.7177 140.696C38.9668 140.578 39.2628 140.517 39.5985 140.517C39.9343 140.517 40.2086 140.574 40.4577 140.689C40.7068 140.804 40.9126 140.962 41.0823 141.167C41.252 141.372 41.3783 141.609 41.4649 141.882C41.5516 142.155 41.5949 142.447 41.5949 142.763C41.5949 143.058 41.5552 143.338 41.4758 143.607L41.4686 143.604Z" fill="url(#paint3_linear_10025_2801)"/>
<path d="M53.784 140.761V142.324H50.896V139.809H49.9141V145.731H50.896V143.151H53.784V145.731H54.766V139.809H53.784V140.765V140.761Z" fill="url(#paint4_linear_10025_2801)"/>
<path d="M75.1517 144.632V139.805H71.1445C71.1265 140.147 71.1048 140.502 71.0795 140.876C71.0579 141.25 71.0326 141.631 71.0074 142.023C70.9749 142.558 70.9171 143.014 70.8377 143.385C70.7583 143.755 70.6572 144.06 70.5344 144.305C70.4153 144.542 70.2817 144.739 70.1337 144.901H69.6211V147H70.4514L70.5019 145.728H75.0398L75.0903 147H75.9206V144.901H75.1517V144.632ZM74.1734 140.908V144.901H71.1445C71.2817 144.718 71.4008 144.527 71.4947 144.315C71.6066 144.06 71.6933 143.766 71.7546 143.428C71.816 143.09 71.8629 142.691 71.8918 142.227C71.9135 141.861 71.9351 141.491 71.9604 141.117C71.9712 140.955 71.9821 140.793 71.9893 140.632H74.1734V140.908Z" fill="url(#paint5_linear_10025_2801)"/>
<path d="M83.9965 141.013C83.9749 141.419 83.9532 141.818 83.9279 142.217C83.8918 142.842 83.8413 143.356 83.7835 143.762C83.7222 144.168 83.6283 144.463 83.5019 144.657C83.3756 144.851 83.1951 144.944 82.9677 144.944C82.9243 144.944 82.881 144.944 82.8341 144.937C82.7872 144.93 82.733 144.923 82.6716 144.912L82.6211 145.742C82.6716 145.753 82.7258 145.764 82.7872 145.774C82.8485 145.785 82.9135 145.792 82.9857 145.8C83.0579 145.807 83.1301 145.81 83.2059 145.81C83.5417 145.81 83.8052 145.746 84.0037 145.613C84.2023 145.48 84.3503 145.279 84.455 145.009C84.5597 144.739 84.6355 144.405 84.686 143.999C84.733 143.597 84.7763 143.122 84.8124 142.583C84.8413 142.13 84.8738 141.692 84.899 141.268C84.9135 141.056 84.9279 140.844 84.9424 140.632H87.1192V145.728H88.1011V139.805H84.0723C84.0471 140.208 84.0218 140.61 84.0001 141.013H83.9965Z" fill="url(#paint6_linear_10025_2801)"/>
<path d="M98.6248 139.805H97.8089C97.3432 139.805 96.9534 139.859 96.6393 139.967C96.3252 140.075 96.0869 140.247 95.9281 140.488C95.7693 140.729 95.6898 141.052 95.6898 141.455C95.6898 141.703 95.7259 141.936 95.7981 142.152C95.8703 142.368 95.9859 142.558 96.1411 142.723C96.2963 142.889 96.5057 143.018 96.762 143.111C96.8739 143.151 97.0003 143.18 97.1339 143.205L96.5165 144.024C96.383 144.204 96.2386 144.398 96.0833 144.603C95.9281 144.808 95.7765 145.009 95.6321 145.207C95.4877 145.404 95.3541 145.577 95.2422 145.731H96.3433C96.5202 145.491 96.6934 145.257 96.8559 145.031C97.0219 144.804 97.1808 144.585 97.3396 144.373L98.0111 143.449H98.9858V145.728H99.9533V139.805H98.6212H98.6248ZM98.993 140.905V142.655H98.058C97.6068 142.655 97.271 142.572 97.0436 142.407C96.8198 142.242 96.7043 141.958 96.7043 141.559C96.7043 141.34 96.7368 141.167 96.8053 141.038C96.8739 140.908 96.9642 140.815 97.0797 140.75C97.1952 140.689 97.318 140.646 97.4515 140.628C97.5851 140.61 97.7151 140.599 97.845 140.599H98.993V140.905Z" fill="url(#paint7_linear_10025_2801)"/>
<path d="M122.149 144.405C121.958 144.164 121.781 143.938 121.615 143.726L120.712 142.58L121.514 141.631C121.77 141.329 122.026 141.027 122.283 140.729C122.539 140.427 122.803 140.121 123.07 139.805H121.933C121.683 140.103 121.467 140.369 121.279 140.599C121.091 140.829 120.904 141.059 120.712 141.289L119.904 142.27H119.539V139.809H118.579V142.27H118.211L117.409 141.289C117.225 141.059 117.037 140.829 116.85 140.599C116.662 140.369 116.449 140.103 116.203 139.805H115.048C115.312 140.118 115.568 140.427 115.821 140.729C116.07 141.031 116.323 141.332 116.572 141.634L117.38 142.615L116.51 143.726C116.341 143.938 116.16 144.164 115.969 144.409C115.777 144.653 115.59 144.89 115.406 145.124C115.222 145.358 115.059 145.559 114.922 145.735H116.088C116.312 145.455 116.518 145.192 116.712 144.948C116.907 144.704 117.099 144.459 117.29 144.215L118.203 143.058H118.575V145.735H119.536V143.058H119.907L120.832 144.24C121.012 144.474 121.196 144.711 121.387 144.952C121.579 145.192 121.781 145.455 122.001 145.735H123.189C123.052 145.559 122.889 145.358 122.705 145.124C122.521 144.89 122.333 144.653 122.146 144.412L122.149 144.405Z" fill="url(#paint8_linear_10025_2801)"/>
<path d="M133.434 141.146C133.134 141.577 132.838 142.001 132.549 142.414L131.372 144.085H131.297V139.809H130.34V145.731H131.167C131.437 145.343 131.722 144.937 132.022 144.513C132.318 144.089 132.647 143.625 133.004 143.119L134.185 141.447H134.257V145.728H135.213V139.805H134.379C134.055 140.269 133.741 140.714 133.437 141.146H133.434Z" fill="url(#paint9_linear_10025_2801)"/>
<path d="M146.648 142.896C146.464 142.788 146.266 142.713 146.049 142.669V142.583C146.251 142.526 146.435 142.436 146.594 142.314C146.753 142.191 146.879 142.037 146.973 141.85C147.067 141.663 147.114 141.44 147.114 141.189C147.114 140.977 147.078 140.786 147.006 140.617C146.934 140.448 146.818 140.301 146.663 140.182C146.508 140.06 146.302 139.97 146.046 139.906C145.789 139.841 145.479 139.809 145.111 139.809H142.84V145.731H144.778C145.259 145.731 145.659 145.692 145.981 145.609C146.298 145.53 146.555 145.415 146.739 145.268C146.926 145.12 147.056 144.948 147.136 144.747C147.215 144.545 147.255 144.326 147.255 144.089C147.255 143.791 147.201 143.543 147.089 143.349C146.977 143.155 146.829 143.004 146.648 142.899V142.896ZM143.8 141.997V140.599H145.035C145.389 140.599 145.652 140.668 145.833 140.804C146.009 140.941 146.1 141.149 146.1 141.429C146.1 141.598 146.06 141.753 145.977 141.893C145.898 142.033 145.771 142.145 145.598 142.231C145.428 142.314 145.208 142.357 144.937 142.357H143.8V142.001V141.997ZM146.103 144.506C146.009 144.646 145.861 144.75 145.659 144.822C145.457 144.894 145.19 144.934 144.861 144.934H143.797V143.119H144.959C145.367 143.119 145.681 143.187 145.905 143.327C146.129 143.467 146.241 143.694 146.241 144.006C146.241 144.2 146.194 144.366 146.1 144.506H146.103Z" fill="url(#paint10_linear_10025_2801)"/>
<path d="M159.458 140.589C159.205 140.308 158.887 140.089 158.512 139.931C158.136 139.773 157.699 139.694 157.205 139.694C156.551 139.694 155.999 139.83 155.552 140.103C155.104 140.377 154.761 140.743 154.53 141.207C154.299 141.67 154.18 142.188 154.18 142.763C154.18 143.173 154.245 143.561 154.367 143.931C154.494 144.297 154.681 144.628 154.934 144.912C155.187 145.196 155.505 145.422 155.887 145.584C156.27 145.749 156.718 145.828 157.237 145.828C157.873 145.828 158.411 145.695 158.858 145.426C159.306 145.16 159.645 144.793 159.88 144.333C160.115 143.87 160.23 143.349 160.23 142.763C160.23 142.339 160.165 141.936 160.039 141.566C159.912 141.196 159.721 140.869 159.465 140.589H159.458ZM159.089 143.604C159.01 143.873 158.887 144.111 158.725 144.323C158.562 144.535 158.353 144.7 158.104 144.822C157.855 144.944 157.559 145.005 157.216 145.005C156.873 145.005 156.577 144.944 156.324 144.826C156.071 144.704 155.862 144.542 155.696 144.333C155.53 144.125 155.407 143.884 155.328 143.618C155.248 143.349 155.205 143.065 155.205 142.766C155.205 142.468 155.245 142.181 155.331 141.911C155.414 141.642 155.541 141.404 155.71 141.192C155.876 140.98 156.089 140.819 156.338 140.696C156.588 140.578 156.884 140.517 157.219 140.517C157.555 140.517 157.833 140.574 158.079 140.689C158.328 140.804 158.533 140.962 158.703 141.167C158.873 141.372 158.999 141.609 159.086 141.882C159.172 142.155 159.216 142.447 159.216 142.763C159.216 143.058 159.176 143.338 159.097 143.607L159.089 143.604Z" fill="url(#paint11_linear_10025_2801)"/>
<path d="M166.84 140.664H168.793V145.728H169.768V140.664H171.717V139.805H166.84V140.664Z" fill="url(#paint12_linear_10025_2801)"/>
<path d="M182.757 140.761V142.324H179.869V139.809H178.887V145.731H179.869V143.151H182.757V145.731H183.739V139.809H182.757V140.765V140.761Z" fill="url(#paint13_linear_10025_2801)"/>
<path d="M194.732 142.209C194.425 142.091 194.039 142.03 193.577 142.03H192.339V139.805H191.371V145.728H193.476C194.021 145.728 194.45 145.645 194.768 145.483C195.086 145.322 195.313 145.095 195.447 144.808C195.584 144.52 195.653 144.19 195.653 143.816C195.653 143.388 195.577 143.04 195.422 142.781C195.27 142.518 195.039 142.328 194.732 142.209ZM194.508 144.459C194.411 144.624 194.266 144.743 194.064 144.819C193.866 144.894 193.609 144.934 193.295 144.934H192.335V142.828H193.512C193.638 142.828 193.772 142.838 193.905 142.86C194.039 142.881 194.165 142.925 194.277 142.993C194.389 143.058 194.479 143.158 194.548 143.291C194.617 143.424 194.649 143.597 194.649 143.816C194.649 144.082 194.602 144.297 194.505 144.459H194.508Z" fill="url(#paint14_linear_10025_2801)"/>
<path d="M196.582 140.761V145.728H197.578V139.805H196.582V140.761Z" fill="url(#paint15_linear_10025_2801)"/>
<path d="M209.401 144.819C209.21 144.527 209.011 144.222 208.802 143.902L208.04 142.745L208.777 141.516C208.921 141.268 209.08 141.002 209.253 140.711C209.427 140.423 209.611 140.118 209.802 139.798H208.708C208.567 140.046 208.423 140.29 208.282 140.535C208.138 140.779 208.001 141.013 207.871 141.232L207.369 142.091H207.286L206.77 141.239C206.636 141.016 206.495 140.786 206.347 140.542C206.199 140.301 206.051 140.053 205.896 139.798H204.77C204.983 140.136 205.177 140.448 205.358 140.736C205.538 141.023 205.715 141.307 205.892 141.591L206.578 142.684L205.788 144.021C205.607 144.326 205.434 144.617 205.268 144.898C205.102 145.178 204.939 145.451 204.78 145.724H205.878C206.022 145.476 206.159 145.246 206.286 145.031C206.412 144.815 206.538 144.599 206.668 144.384L207.264 143.367H207.347L207.986 144.38C208.116 144.585 208.253 144.797 208.394 145.02C208.535 145.243 208.683 145.476 208.838 145.724H209.997C209.791 145.412 209.593 145.11 209.401 144.819Z" fill="url(#paint16_linear_10025_2801)"/>
<path d="M132.97 22.5156V61.9116H127.826V42.325H104.137V61.9116H98.9922V40.7868C100.552 40.1759 104.14 38.1741 104.14 38.1705V39.7338H127.826L127.833 22.512H132.97V22.5156Z" fill="url(#paint17_linear_10025_2801)"/>
<path d="M99.337 37.768L104.142 35.2523V22.5156H93.0013V24.8193L98.9904 24.8228V35.2199C98.8279 35.3277 98.6619 35.4212 98.4994 35.5182C98.4236 35.5649 98.3478 35.608 98.2684 35.6512C98.1276 35.7338 97.9868 35.8093 97.846 35.8848C97.8099 35.9099 97.7702 35.9279 97.7305 35.9459C97.568 36.0357 97.3984 36.122 97.2359 36.201C97.1782 36.2334 97.124 36.2621 97.0662 36.2837C96.9182 36.3556 96.7738 36.4274 96.6258 36.4921C96.5825 36.5173 96.5392 36.5353 96.4923 36.5496C96.319 36.6323 96.1457 36.7078 95.9724 36.7761C95.7739 36.8587 95.5717 36.9378 95.3695 37.0132C94.958 37.1678 94.5428 37.3079 94.1204 37.4301C92.3479 37.9548 90.3263 38.2172 88.0592 38.2172C86.3805 38.2172 84.8246 38.0734 83.3842 37.7895C83.0629 37.7248 82.7488 37.653 82.4419 37.5775C81.9835 37.4625 81.5358 37.3295 81.099 37.1786C80.8066 37.0779 80.525 36.9701 80.2434 36.8587C79.72 36.6467 79.2182 36.4167 78.7416 36.1687C78.5828 36.086 78.4204 35.9998 78.2651 35.9135C78.016 35.7734 77.7742 35.6296 77.5359 35.4787C76.4673 34.803 75.5215 34.0124 74.6948 33.1139C73.2183 31.5218 72.1172 29.6278 71.3808 27.4284C70.6443 25.2361 70.2761 22.8247 70.2761 20.1975C70.2761 17.5704 70.6227 15.2272 71.3194 13.0529C72.0197 10.875 73.063 8.99545 74.4565 7.42134C74.8933 6.92898 75.3554 6.46896 75.8572 6.04848C76.0558 5.87597 76.2579 5.71784 76.4637 5.55971C76.6731 5.40158 76.8861 5.25064 77.1063 5.10329C77.2146 5.03142 77.3265 4.95954 77.4348 4.88766C77.7705 4.67562 78.1135 4.47796 78.4745 4.29108C78.8319 4.1042 79.1965 3.9281 79.5756 3.76637C79.7308 3.69809 79.8896 3.6334 80.0557 3.57231C80.8644 3.26683 81.7199 3.01885 82.6261 2.83916C82.9907 2.76728 83.3625 2.70259 83.7416 2.65587C84.6549 2.53368 85.6116 2.47258 86.6115 2.47258C87.7198 2.47258 88.7812 2.54446 89.8028 2.69181C89.9545 2.71337 90.1061 2.73493 90.2577 2.76368C90.5609 2.814 90.857 2.8715 91.153 2.93619C91.2974 2.96854 91.4454 3.00447 91.5898 3.04041C92.3624 3.22729 93.088 3.44293 93.7775 3.68371C94.2973 3.867 94.7883 4.06466 95.2576 4.2803C95.4128 4.35217 95.5645 4.42405 95.7161 4.49952C96.9218 5.0997 97.911 5.78613 98.6835 6.55162C99.4561 7.3243 99.9543 8.10058 100.182 8.88764H104.25C103.911 8.06464 103.333 7.13742 102.528 6.10239C101.716 5.07095 100.611 4.1042 99.2214 3.20573C98.8135 2.94338 98.3731 2.69181 97.911 2.45461C97.5825 2.28211 97.2395 2.12038 96.8785 1.96225C96.6655 1.86522 96.4417 1.77537 96.2179 1.68193C95.7666 1.50224 95.2937 1.32614 94.8027 1.16441C94.5536 1.08535 94.3046 1.00269 94.0482 0.927218C93.9219 0.887685 93.7883 0.851747 93.662 0.815808C93.3984 0.743931 93.1313 0.675647 92.8533 0.614551C92.171 0.460015 91.4454 0.327042 90.6909 0.233601C90.236 0.172506 89.7703 0.129379 89.2902 0.0934406C88.9689 0.0682835 88.644 0.0503142 88.3155 0.0323448C87.8173 0.0107816 87.3083 0 86.7848 0C83.5791 0 80.6333 0.449234 77.9366 1.3477C75.2435 2.24976 72.915 3.54355 70.9548 5.23267C68.9909 6.92179 67.4639 8.99545 66.3736 11.4501C66.2364 11.7555 66.1101 12.0718 65.991 12.3881C65.8538 12.7474 65.7347 13.1068 65.6191 13.477C65.5614 13.6639 65.5108 13.8508 65.4603 14.0376C65.3592 14.4114 65.269 14.7995 65.1859 15.1877C65.0668 15.7699 64.9693 16.3701 64.8971 16.981C64.7888 17.8903 64.7383 18.8319 64.7383 19.8022C64.7383 22.4689 65.1607 25.0493 66.0126 27.5434C66.861 30.0375 68.1642 32.2693 69.9187 34.2388C71.6732 36.2082 73.9078 37.7859 76.6262 38.9683C79.3445 40.1507 82.59 40.7401 86.3697 40.7401C86.7271 40.7401 87.0736 40.7365 87.4166 40.7257C87.9292 40.7149 88.431 40.6898 88.9292 40.6502C89.0917 40.6395 89.2541 40.6251 89.4166 40.6107C91.0375 40.467 92.532 40.2046 93.9002 39.8129C94.1529 39.741 94.3984 39.6691 94.6439 39.5936C94.9363 39.511 95.2179 39.4175 95.4959 39.3277C95.9291 39.1875 96.3406 39.0438 96.7377 38.8964C97.1312 38.7491 97.5103 38.6017 97.8677 38.4472C98.0807 38.3609 98.2864 38.2675 98.4886 38.1741C98.6366 38.1058 98.781 38.0375 98.9182 37.9728C98.9471 37.962 98.9687 37.9477 98.994 37.9369C99.1095 37.8758 99.2251 37.8219 99.337 37.7608V37.768Z" fill="url(#paint18_linear_10025_2801)"/>
<path d="M38.6364 96.9621H36.3152V95.848C35.6221 96.211 34.7448 96.5416 33.6871 96.8399C32.6293 97.1382 31.4164 97.2891 30.0481 97.2891C28.2215 97.2891 26.6547 97.0052 25.3406 96.4338C24.0266 95.8623 22.9436 95.1004 22.0952 94.1481C21.2469 93.1957 20.6187 92.1175 20.2072 90.91C19.7956 89.7025 19.5898 88.459 19.5898 87.1688C19.5898 85.6629 19.8534 84.3152 20.3804 83.1293C20.9075 81.9433 21.6476 80.9406 22.5934 80.1248C23.5392 79.309 24.6656 78.6837 25.9688 78.2488C27.272 77.8139 28.698 77.5947 30.2467 77.5947C31.5932 77.5947 32.7665 77.7457 33.7593 78.0439C34.752 78.3422 35.586 78.7088 36.261 79.1473C36.9361 79.5821 37.4668 80.0493 37.8603 80.5489C38.2502 81.0484 38.5281 81.4977 38.6942 81.8966H36.7267C36.6184 81.5156 36.3766 81.1383 36.0011 80.7681C35.6293 80.3979 35.1491 80.0637 34.5679 79.7762C33.9831 79.4851 33.3188 79.2515 32.5716 79.0682C31.8243 78.8885 31.0229 78.7951 30.1673 78.7951C28.8749 78.7951 27.7377 79.0035 26.7666 79.4204C25.7919 79.8373 24.9688 80.4267 24.2937 81.1886C23.6187 81.9505 23.1132 82.8561 22.7775 83.9091C22.4418 84.9621 22.2721 86.1122 22.2721 87.3628C22.2721 88.6135 22.449 89.7959 22.8064 90.8597C23.1638 91.9199 23.6945 92.8363 24.4093 93.609C25.1204 94.3817 26.0157 94.9818 27.0915 95.4167C28.1673 95.8516 29.4272 96.0708 30.8712 96.0708C31.9651 96.0708 32.9434 95.945 33.799 95.6898C34.6582 95.4347 35.4957 95.0465 36.3188 94.5218V89.5982H33.2575V88.4841H38.6401V96.9729L38.6364 96.9621Z" fill="url(#paint19_linear_10025_2801)"/>
<path d="M49.7604 77.9187C50.9806 77.9187 51.9914 78.0876 52.7928 78.4218C53.5942 78.756 54.226 79.1729 54.6917 79.6725C55.1574 80.172 55.4823 80.7111 55.6736 81.2897C55.8649 81.8719 55.9588 82.4038 55.9588 82.8962C55.9588 83.4389 55.8686 83.9995 55.688 84.5709C55.5075 85.1423 55.2187 85.6742 54.8216 86.163C54.4245 86.6518 53.9119 87.0615 53.2874 87.3885C52.6628 87.7156 51.9119 87.906 51.0383 87.9599V88.0678L51.3127 88.2043C51.5329 88.3121 51.717 88.4487 51.8722 88.614C52.0275 88.7757 52.226 89.0417 52.4751 89.4011C52.7206 89.7641 53.0527 90.278 53.4679 90.9393C53.883 91.6005 54.4715 92.4846 55.2296 93.5915C55.4823 93.9725 55.7278 94.3139 55.9624 94.6122C56.1971 94.9105 56.4425 95.1656 56.6989 95.3741C56.9552 95.5825 57.2259 95.7407 57.5183 95.8485C57.8108 95.9563 58.1465 96.0102 58.5292 96.0102C58.6194 96.0102 58.7097 96.0066 58.8035 95.9958C58.8938 95.9851 58.984 95.9743 59.0779 95.9563V96.9626C58.8216 97.1063 58.5689 97.1998 58.3126 97.2357C58.0562 97.2716 57.7277 97.2896 57.327 97.2896C56.7819 97.2896 56.3126 97.2177 55.9227 97.0704C55.5328 96.9266 55.1863 96.729 54.8794 96.4846C54.5725 96.2402 54.2874 95.9455 54.0274 95.6005C53.7639 95.2555 53.5004 94.8745 53.2296 94.4577L51.0636 91.2735C50.7351 90.7668 50.4499 90.3391 50.2116 89.9941C49.9733 89.6491 49.717 89.3687 49.4427 89.1495C49.1683 88.9303 48.8615 88.7793 48.5221 88.6859C48.1828 88.5961 47.7604 88.5493 47.2478 88.5493H46.042V96.9554H43.5547V77.9115H49.7567L49.7604 77.9187ZM46.042 87.331H48.8687C49.5979 87.331 50.2441 87.2052 50.8037 86.9501C51.3596 86.6949 51.8325 86.3643 52.2152 85.9582C52.5979 85.5485 52.8867 85.0956 53.078 84.5997C53.2693 84.1001 53.3668 83.6078 53.3668 83.1154C53.3668 82.5368 53.2621 82.0013 53.0527 81.5089C52.8433 81.0202 52.5365 80.5961 52.1322 80.2439C51.7314 79.8917 51.2477 79.615 50.6917 79.4137C50.1358 79.2125 49.5077 79.1154 48.8145 79.1154H46.0456V87.331H46.042Z" fill="url(#paint20_linear_10025_2801)"/>
<path d="M61.8505 84.1504C62.2403 82.9896 62.8577 81.9258 63.6952 80.9555C64.5327 79.9852 65.5977 79.1837 66.8937 78.5476C68.1861 77.9115 69.7348 77.5952 71.5398 77.5952C73.3448 77.5952 74.9405 77.9187 76.2798 78.562C77.6191 79.2053 78.7238 80.0175 79.601 80.995C80.4747 81.9726 81.1209 83.0399 81.5433 84.19C81.962 85.34 82.1714 86.4254 82.1714 87.4424C82.1714 88.1145 82.0775 88.8225 81.8862 89.5628C81.6949 90.3067 81.4133 91.0471 81.0378 91.7802C80.6624 92.5134 80.1859 93.2142 79.6047 93.8755C79.0198 94.5367 78.3339 95.1225 77.5433 95.6293C76.7527 96.136 75.8574 96.5421 74.8647 96.8404C73.8719 97.1387 72.7636 97.2896 71.5434 97.2896C69.7384 97.2896 68.1897 96.9662 66.8973 96.3229C65.6049 95.6796 64.5363 94.8674 63.6988 93.8898C62.8613 92.9123 62.2439 91.8449 61.8541 90.6949C61.4606 89.5448 61.2656 88.4595 61.2656 87.4424C61.2656 86.4254 61.4606 85.3113 61.8541 84.1504H61.8505ZM64.5291 90.9357C64.919 91.9959 65.4569 92.9087 66.1428 93.6706C66.8251 94.4325 67.6337 95.0255 68.5615 95.4532C69.4893 95.8808 70.5001 96.0929 71.594 96.0929C72.6878 96.0929 73.6842 95.8808 74.6408 95.4532C75.5975 95.0291 76.435 94.4325 77.1534 93.6706C77.8718 92.9087 78.4422 91.9959 78.861 90.9357C79.2798 89.8755 79.4891 88.7111 79.4891 87.4388C79.4891 86.1666 79.2798 85.0058 78.861 83.942C78.4422 82.8818 77.8718 81.969 77.1534 81.2071C76.435 80.4452 75.5975 79.8522 74.6408 79.4245C73.6842 78.9968 72.6698 78.7848 71.594 78.7848C70.5182 78.7848 69.4893 78.9968 68.5615 79.4245C67.6337 79.8522 66.8251 80.4452 66.1428 81.2071C65.4605 81.969 64.9226 82.8818 64.5291 83.942C64.1356 85.0022 63.9407 86.1702 63.9407 87.4388C63.9407 88.7075 64.1356 89.8719 64.5291 90.9357Z" fill="url(#paint21_linear_10025_2801)"/>
<path d="M85.4872 84.1504C85.8771 82.9896 86.4944 81.9258 87.3319 80.9555C88.1694 79.9852 89.2344 79.1837 90.5304 78.5476C91.8228 77.9115 93.3715 77.5952 95.1765 77.5952C96.9816 77.5952 98.5772 77.9187 99.9165 78.562C101.256 79.2053 102.361 80.0175 103.238 80.995C104.111 81.9726 104.758 83.0399 105.18 84.19C105.599 85.34 105.808 86.4254 105.808 87.4424C105.808 88.1145 105.714 88.8225 105.523 89.5628C105.332 90.3067 105.05 91.0471 104.675 91.7802C104.299 92.5134 103.823 93.2142 103.241 93.8755C102.657 94.5367 101.971 95.1225 101.18 95.6293C100.389 96.136 99.4941 96.5421 98.5014 96.8404C97.5086 97.1387 96.4003 97.2896 95.1801 97.2896C93.3751 97.2896 91.8264 96.9662 90.534 96.3229C89.2416 95.6796 88.173 94.8674 87.3355 93.8898C86.498 92.9123 85.8843 91.8449 85.4908 90.6949C85.0973 89.5448 84.9023 88.4595 84.9023 87.4424C84.9023 86.4254 85.0973 85.3113 85.4908 84.1504H85.4872ZM88.1658 90.9357C88.5557 91.9959 89.0936 92.9087 89.7795 93.6706C90.4618 94.4325 91.2705 95.0255 92.1982 95.4532C93.126 95.8808 94.1404 96.0929 95.2307 96.0929C96.3209 96.0929 97.3209 95.8808 98.2776 95.4532C99.2342 95.0291 100.072 94.4325 100.79 93.6706C101.509 92.9087 102.079 91.9959 102.498 90.9357C102.916 89.8755 103.126 88.7111 103.126 87.4388C103.126 86.1666 102.916 85.0058 102.498 83.942C102.079 82.8818 101.509 81.969 100.79 81.2071C100.072 80.4452 99.2342 79.8522 98.2776 79.4245C97.3209 78.9968 96.3065 78.7848 95.2307 78.7848C94.1549 78.7848 93.126 78.9968 92.1982 79.4245C91.2705 79.8522 90.4618 80.4452 89.7795 81.2071C89.0972 81.969 88.5593 82.8818 88.1658 83.942C87.7723 85.0022 87.5774 86.1702 87.5774 87.4388C87.5774 88.7075 87.7723 89.8719 88.1658 90.9357Z" fill="url(#paint22_linear_10025_2801)"/>
<path d="M121.077 94.2708H121.186L130.041 77.9223H131.925V96.9662H129.438V81.5413H129.33L120.695 97.2932H120.204L111.76 81.4335H111.651V96.9662H110.449V77.9223H112.308L121.081 94.2708H121.077Z" fill="url(#paint23_linear_10025_2801)"/>
<path d="M142.065 77.9187V96.9626H139.578V77.9187H142.065Z" fill="url(#paint24_linear_10025_2801)"/>
<path d="M166.386 77.9187V97.2896H166.249L151.083 82.4074H150.975V96.9626H149.719V77.5916H149.856L165.022 92.4738H165.13V77.9187H166.386Z" fill="url(#paint25_linear_10025_2801)"/>
<path d="M190.351 96.9626H188.03V95.8485C187.337 96.2115 186.46 96.5421 185.402 96.8404C184.344 97.1387 183.131 97.2896 181.763 97.2896C179.936 97.2896 178.37 97.0057 177.055 96.4343C175.741 95.8629 174.658 95.101 173.81 94.1486C172.962 93.1962 172.334 92.1181 171.922 90.9105C171.51 89.703 171.305 88.4595 171.305 87.1693C171.305 85.6635 171.568 84.3158 172.095 83.1298C172.622 81.9438 173.362 80.9411 174.308 80.1253C175.254 79.3095 176.38 78.6842 177.684 78.2493C178.987 77.8145 180.413 77.5952 181.962 77.5952C183.308 77.5952 184.481 77.7462 185.474 78.0445C186.467 78.3428 187.301 78.7093 187.976 79.1478C188.651 79.5826 189.182 80.0498 189.575 80.5494C189.965 81.0489 190.243 81.4982 190.409 81.8971H188.442C188.333 81.5161 188.091 81.1388 187.716 80.7686C187.344 80.3984 186.864 80.0642 186.283 79.7767C185.698 79.4856 185.034 79.252 184.286 79.0687C183.539 78.889 182.738 78.7956 181.882 78.7956C180.59 78.7956 179.453 79.004 178.481 79.4209C177.507 79.8378 176.684 80.4272 176.009 81.1891C175.333 81.951 174.828 82.8567 174.492 83.9097C174.153 84.9627 173.987 86.1127 173.987 87.3634C173.987 88.614 174.164 89.7964 174.521 90.8602C174.879 91.9204 175.409 92.8368 176.124 93.6095C176.835 94.3822 177.731 94.9824 178.806 95.4172C179.882 95.8521 181.142 96.0713 182.586 96.0713C183.68 96.0713 184.658 95.9455 185.514 95.6904C186.373 95.4352 187.211 95.0471 188.034 94.5224V89.5988H184.972V88.4847H190.355V96.9734L190.351 96.9626Z" fill="url(#paint26_linear_10025_2801)"/>
<path d="M59.6201 130.328H57.1328V111.284H59.6201V119.608H71.0712V111.284H73.5585V130.328H71.0712V120.862H59.6201V130.328Z" fill="url(#paint27_linear_10025_2801)"/>
<path d="M78.788 117.516C79.1778 116.355 79.7952 115.291 80.6327 114.321C81.4702 113.351 82.5352 112.549 83.8312 111.913C85.1236 111.277 86.6723 110.961 88.4773 110.961C90.2823 110.961 91.878 111.284 93.2173 111.927C94.5566 112.571 95.6613 113.383 96.5385 114.361C97.4122 115.338 98.0584 116.405 98.4808 117.555C98.8995 118.705 99.1089 119.791 99.1089 120.808C99.1089 121.48 99.015 122.188 98.8237 122.928C98.6324 123.672 98.3508 124.413 97.9753 125.146C97.5999 125.879 97.1234 126.58 96.5422 127.241C95.9573 127.902 95.2714 128.488 94.4808 128.995C93.6902 129.501 92.7949 129.908 91.8022 130.206C90.8094 130.504 89.7011 130.655 88.4809 130.655C86.6759 130.655 85.1272 130.332 83.8348 129.688C82.5424 129.045 81.4738 128.233 80.6363 127.255C79.7988 126.278 79.1851 125.21 78.7916 124.06C78.3981 122.91 78.2031 121.825 78.2031 120.808C78.2031 119.791 78.3981 118.677 78.7916 117.516H78.788ZM81.4666 124.305C81.8565 125.365 82.3944 126.278 83.0803 127.04C83.7626 127.802 84.5712 128.395 85.499 128.822C86.4268 129.25 87.4412 129.462 88.5315 129.462C89.6217 129.462 90.6217 129.25 91.5783 128.822C92.535 128.398 93.3725 127.802 94.0909 127.04C94.8093 126.278 95.3797 125.365 95.7985 124.305C96.2173 123.245 96.4266 122.08 96.4266 120.808C96.4266 119.536 96.2173 118.375 95.7985 117.311C95.3797 116.251 94.8093 115.338 94.0909 114.576C93.3725 113.814 92.535 113.221 91.5783 112.794C90.6217 112.366 89.6073 112.154 88.5315 112.154C87.4557 112.154 86.4268 112.366 85.499 112.794C84.5712 113.221 83.7626 113.814 83.0803 114.576C82.398 115.338 81.8601 116.251 81.4666 117.311C81.0731 118.371 80.8782 119.539 80.8782 120.808C80.8782 122.077 81.0731 123.241 81.4666 124.305Z" fill="url(#paint28_linear_10025_2801)"/>
<path d="M105.147 111.288V123.719C105.147 124.082 105.155 124.445 105.176 124.808C105.194 125.171 105.259 125.53 105.368 125.882C105.476 126.235 105.642 126.594 105.859 126.957C106.079 127.32 106.397 127.683 106.815 128.046C107.342 128.517 107.902 128.873 108.498 129.106C109.09 129.343 109.768 129.458 110.534 129.458C111.425 129.458 112.281 129.333 113.104 129.077C113.923 128.822 114.66 128.344 115.317 127.636C115.682 127.237 115.96 126.838 116.151 126.439C116.342 126.041 116.483 125.638 116.573 125.228C116.664 124.819 116.718 124.413 116.736 124.003C116.754 123.593 116.765 123.191 116.765 122.792V111.284H117.967V123.69C117.967 124.653 117.812 125.555 117.501 126.396C117.191 127.241 116.732 127.978 116.122 128.614C115.512 129.25 114.754 129.746 113.855 130.109C112.952 130.472 111.92 130.652 110.754 130.652C108.895 130.652 107.429 130.393 106.353 129.875C105.277 129.358 104.469 128.714 103.92 127.945C103.375 127.176 103.028 126.339 102.88 125.444C102.736 124.546 102.66 123.726 102.66 122.982V111.284H105.147V111.288Z" fill="url(#paint29_linear_10025_2801)"/>
<path d="M123.015 125.512C123.033 125.821 123.105 126.199 123.235 126.641C123.361 127.086 123.607 127.518 123.971 127.935C124.336 128.351 124.863 128.711 125.556 129.009C126.249 129.307 127.17 129.458 128.314 129.458C129.754 129.458 130.906 129.185 131.773 128.643C132.639 128.1 133.072 127.237 133.072 126.059C133.072 125.117 132.798 124.362 132.253 123.802C131.708 123.241 131.018 122.763 130.191 122.375C129.361 121.987 128.466 121.634 127.498 121.329C126.531 121.02 125.635 120.65 124.805 120.215C123.975 119.78 123.289 119.237 122.74 118.583C122.195 117.929 121.921 117.07 121.921 115.999C121.921 115.183 122.09 114.458 122.426 113.821C122.762 113.185 123.22 112.661 123.794 112.244C124.368 111.827 125.036 111.511 125.791 111.291C126.549 111.072 127.347 110.964 128.184 110.964C129.022 110.964 129.758 111.061 130.495 111.248C131.235 111.439 131.895 111.719 132.48 112.093C133.065 112.467 133.549 112.919 133.931 113.455C134.314 113.99 134.559 114.594 134.671 115.263H132.809C132.664 114.192 132.173 113.408 131.343 112.909C130.513 112.409 129.505 112.161 128.318 112.161C127.607 112.161 126.975 112.247 126.43 112.42C125.881 112.592 125.422 112.819 125.047 113.099C124.672 113.379 124.39 113.71 124.199 114.091C124.007 114.472 123.91 114.878 123.91 115.316C123.91 116.096 124.191 116.722 124.758 117.192C125.325 117.663 126.033 118.08 126.881 118.443C127.729 118.806 128.653 119.151 129.646 119.478C130.643 119.805 131.563 120.208 132.411 120.689C133.26 121.171 133.967 121.767 134.534 122.486C135.101 123.201 135.383 124.121 135.383 125.246C135.383 126.062 135.216 126.806 134.888 127.478C134.559 128.15 134.094 128.722 133.491 129.192C132.888 129.663 132.162 130.026 131.314 130.281C130.466 130.536 129.513 130.662 128.455 130.662C127.397 130.662 126.455 130.54 125.581 130.296C124.704 130.051 123.942 129.706 123.296 129.261C122.65 128.815 122.137 128.276 121.762 127.643C121.386 127.007 121.184 126.303 121.145 125.523H123.004L123.015 125.512Z" fill="url(#paint30_linear_10025_2801)"/>
<path d="M152.858 111.288V112.783H142.992V119.611H151.464V120.862H142.992V128.833H152.858V130.328H140.508V111.284H152.858V111.288Z" fill="url(#paint31_linear_10025_2801)"/>
<path d="M44.353 130.547H0.0397105L0 39.9638H64.8076V42.5514H2.59923L2.63894 127.96H44.353V130.547Z" fill="url(#paint32_linear_10025_2801)"/>
<path d="M210 130.317H165.686V127.733H207.4L207.357 42.325H145.152V39.7374H209.956L210 130.317Z" fill="url(#paint33_linear_10025_2801)"/>
<defs>
<linearGradient id="paint0_linear_10025_2801" x1="-74.8366" y1="199.992" x2="251.511" y2="-41.6263" gradientUnits="userSpaceOnUse">
<stop stop-color="#DDC385"/>
<stop offset="0.63" stop-color="#CEAE57"/>
<stop offset="0.79" stop-color="#CBAA51"/>
<stop offset="0.98" stop-color="#C4A241"/>
<stop offset="1" stop-color="#C4A140"/>
</linearGradient>
<linearGradient id="paint1_linear_10025_2801" x1="-70.474" y1="205.893" x2="255.877" y2="-35.7252" gradientUnits="userSpaceOnUse">
<stop stop-color="#DDC385"/>
<stop offset="0.63" stop-color="#CEAE57"/>
<stop offset="0.79" stop-color="#CBAA51"/>
<stop offset="0.98" stop-color="#C4A241"/>
<stop offset="1" stop-color="#C4A140"/>
</linearGradient>
<linearGradient id="paint2_linear_10025_2801" x1="-66.3583" y1="211.442" x2="259.989" y2="-30.1762" gradientUnits="userSpaceOnUse">
<stop stop-color="#DDC385"/>
<stop offset="0.63" stop-color="#CEAE57"/>
<stop offset="0.79" stop-color="#CBAA51"/>
<stop offset="0.98" stop-color="#C4A241"/>
<stop offset="1" stop-color="#C4A140"/>
</linearGradient>
<linearGradient id="paint3_linear_10025_2801" x1="-62.0134" y1="217.314" x2="264.334" y2="-24.3073" gradientUnits="userSpaceOnUse">
<stop stop-color="#DDC385"/>
<stop offset="0.63" stop-color="#CEAE57"/>
<stop offset="0.79" stop-color="#CBAA51"/>
<stop offset="0.98" stop-color="#C4A241"/>
<stop offset="1" stop-color="#C4A140"/>
</linearGradient>
<linearGradient id="paint4_linear_10025_2801" x1="-57.5245" y1="223.38" x2="268.823" y2="-18.2376" gradientUnits="userSpaceOnUse">
<stop stop-color="#DDC385"/>
<stop offset="0.63" stop-color="#CEAE57"/>
<stop offset="0.79" stop-color="#CBAA51"/>
<stop offset="0.98" stop-color="#C4A241"/>
<stop offset="1" stop-color="#C4A140"/>
</linearGradient>
<linearGradient id="paint5_linear_10025_2801" x1="-49.7595" y1="233.867" x2="276.588" y2="-7.75046" gradientUnits="userSpaceOnUse">
<stop stop-color="#DDC385"/>
<stop offset="0.63" stop-color="#CEAE57"/>
<stop offset="0.79" stop-color="#CBAA51"/>
<stop offset="0.98" stop-color="#C4A241"/>
<stop offset="1" stop-color="#C4A140"/>
</linearGradient>
<linearGradient id="paint6_linear_10025_2801" x1="-45.6475" y1="239.423" x2="280.7" y2="-2.19457" gradientUnits="userSpaceOnUse">
<stop stop-color="#DDC385"/>
<stop offset="0.63" stop-color="#CEAE57"/>
<stop offset="0.79" stop-color="#CBAA51"/>
<stop offset="0.98" stop-color="#C4A241"/>
<stop offset="1" stop-color="#C4A140"/>
</linearGradient>
<linearGradient id="paint7_linear_10025_2801" x1="-41.3297" y1="245.253" x2="285.018" y2="3.6344" gradientUnits="userSpaceOnUse">
<stop stop-color="#DDC385"/>
<stop offset="0.63" stop-color="#CEAE57"/>
<stop offset="0.79" stop-color="#CBAA51"/>
<stop offset="0.98" stop-color="#C4A241"/>
<stop offset="1" stop-color="#C4A140"/>
</linearGradient>
<linearGradient id="paint8_linear_10025_2801" x1="-34.0141" y1="255.129" x2="292.334" y2="13.511" gradientUnits="userSpaceOnUse">
<stop stop-color="#DDC385"/>
<stop offset="0.63" stop-color="#CEAE57"/>
<stop offset="0.79" stop-color="#CBAA51"/>
<stop offset="0.98" stop-color="#C4A241"/>
<stop offset="1" stop-color="#C4A140"/>
</linearGradient>
<linearGradient id="paint9_linear_10025_2801" x1="-29.2097" y1="261.623" x2="297.138" y2="20.0049" gradientUnits="userSpaceOnUse">
<stop stop-color="#DDC385"/>
<stop offset="0.63" stop-color="#CEAE57"/>
<stop offset="0.79" stop-color="#CBAA51"/>
<stop offset="0.98" stop-color="#C4A241"/>
<stop offset="1" stop-color="#C4A140"/>
</linearGradient>
<linearGradient id="paint10_linear_10025_2801" x1="-25.0884" y1="267.186" x2="301.259" y2="25.5686" gradientUnits="userSpaceOnUse">
<stop stop-color="#DDC385"/>
<stop offset="0.63" stop-color="#CEAE57"/>
<stop offset="0.79" stop-color="#CBAA51"/>
<stop offset="0.98" stop-color="#C4A241"/>
<stop offset="1" stop-color="#C4A140"/>
</linearGradient>
<linearGradient id="paint11_linear_10025_2801" x1="-20.6116" y1="273.235" x2="305.736" y2="31.6167" gradientUnits="userSpaceOnUse">
<stop stop-color="#DDC385"/>
<stop offset="0.63" stop-color="#CEAE57"/>
<stop offset="0.79" stop-color="#CBAA51"/>
<stop offset="0.98" stop-color="#C4A241"/>
<stop offset="1" stop-color="#C4A140"/>
</linearGradient>
<linearGradient id="paint12_linear_10025_2801" x1="-16.7023" y1="278.518" x2="309.646" y2="36.8961" gradientUnits="userSpaceOnUse">
<stop stop-color="#DDC385"/>
<stop offset="0.63" stop-color="#CEAE57"/>
<stop offset="0.79" stop-color="#CBAA51"/>
<stop offset="0.98" stop-color="#C4A241"/>
<stop offset="1" stop-color="#C4A140"/>
</linearGradient>
<linearGradient id="paint13_linear_10025_2801" x1="-12.1245" y1="284.699" x2="314.223" y2="43.0809" gradientUnits="userSpaceOnUse">
<stop stop-color="#DDC385"/>
<stop offset="0.63" stop-color="#CEAE57"/>
<stop offset="0.79" stop-color="#CBAA51"/>
<stop offset="0.98" stop-color="#C4A241"/>
<stop offset="1" stop-color="#C4A140"/>
</linearGradient>
<linearGradient id="paint14_linear_10025_2801" x1="-8.03674" y1="290.219" x2="318.311" y2="48.602" gradientUnits="userSpaceOnUse">
<stop stop-color="#DDC385"/>
<stop offset="0.63" stop-color="#CEAE57"/>
<stop offset="0.79" stop-color="#CBAA51"/>
<stop offset="0.98" stop-color="#C4A241"/>
<stop offset="1" stop-color="#C4A140"/>
</linearGradient>
<linearGradient id="paint15_linear_10025_2801" x1="-6.57404" y1="292.196" x2="319.774" y2="50.5771" gradientUnits="userSpaceOnUse">
<stop stop-color="#DDC385"/>
<stop offset="0.63" stop-color="#CEAE57"/>
<stop offset="0.79" stop-color="#CBAA51"/>
<stop offset="0.98" stop-color="#C4A241"/>
<stop offset="1" stop-color="#C4A140"/>
</linearGradient>
<linearGradient id="paint16_linear_10025_2801" x1="-2.94591" y1="297.094" x2="323.402" y2="55.4755" gradientUnits="userSpaceOnUse">
<stop stop-color="#DDC385"/>
<stop offset="0.63" stop-color="#CEAE57"/>
<stop offset="0.79" stop-color="#CBAA51"/>
<stop offset="0.98" stop-color="#C4A241"/>
<stop offset="1" stop-color="#C4A140"/>
</linearGradient>
<linearGradient id="paint17_linear_10025_2801" x1="-78.9795" y1="194.403" x2="247.339" y2="-47.193" gradientUnits="userSpaceOnUse">
<stop stop-color="#DDC385"/>
<stop offset="0.63" stop-color="#CEAE57"/>
<stop offset="0.79" stop-color="#CBAA51"/>
<stop offset="0.98" stop-color="#C4A241"/>
<stop offset="1" stop-color="#C4A140"/>
</linearGradient>
<linearGradient id="paint18_linear_10025_2801" x1="-103.927" y1="160.703" x2="222.421" y2="-80.9145" gradientUnits="userSpaceOnUse">
<stop stop-color="#DDC385"/>
<stop offset="0.63" stop-color="#CEAE57"/>
<stop offset="0.79" stop-color="#CBAA51"/>
<stop offset="0.98" stop-color="#C4A241"/>
<stop offset="1" stop-color="#C4A140"/>
</linearGradient>
<linearGradient id="paint19_linear_10025_2801" x1="-91.1953" y1="177.903" x2="235.156" y2="-63.7146" gradientUnits="userSpaceOnUse">
<stop stop-color="#DDC385"/>
<stop offset="0.63" stop-color="#CEAE57"/>
<stop offset="0.79" stop-color="#CBAA51"/>
<stop offset="0.98" stop-color="#C4A241"/>
<stop offset="1" stop-color="#C4A140"/>
</linearGradient>
<linearGradient id="paint20_linear_10025_2801" x1="-84.425" y1="187.043" x2="241.923" y2="-54.5748" gradientUnits="userSpaceOnUse">
<stop stop-color="#DDC385"/>
<stop offset="0.63" stop-color="#CEAE57"/>
<stop offset="0.79" stop-color="#CBAA51"/>
<stop offset="0.98" stop-color="#C4A241"/>
<stop offset="1" stop-color="#C4A140"/>
</linearGradient>
<linearGradient id="paint21_linear_10025_2801" x1="-77.2879" y1="196.685" x2="249.063" y2="-44.9325" gradientUnits="userSpaceOnUse">
<stop stop-color="#DDC385"/>
<stop offset="0.63" stop-color="#CEAE57"/>
<stop offset="0.79" stop-color="#CBAA51"/>
<stop offset="0.98" stop-color="#C4A241"/>
<stop offset="1" stop-color="#C4A140"/>
</linearGradient>
<linearGradient id="paint22_linear_10025_2801" x1="-68.9687" y1="207.923" x2="257.379" y2="-33.6945" gradientUnits="userSpaceOnUse">
<stop stop-color="#DDC385"/>
<stop offset="0.63" stop-color="#CEAE57"/>
<stop offset="0.79" stop-color="#CBAA51"/>
<stop offset="0.98" stop-color="#C4A241"/>
<stop offset="1" stop-color="#C4A140"/>
</linearGradient>
<linearGradient id="paint23_linear_10025_2801" x1="-59.8331" y1="220.265" x2="266.515" y2="-21.3534" gradientUnits="userSpaceOnUse">
<stop stop-color="#DDC385"/>
<stop offset="0.63" stop-color="#CEAE57"/>
<stop offset="0.79" stop-color="#CBAA51"/>
<stop offset="0.98" stop-color="#C4A241"/>
<stop offset="1" stop-color="#C4A140"/>
</linearGradient>
<linearGradient id="paint24_linear_10025_2801" x1="-52.9199" y1="229.598" x2="273.431" y2="-12.0192" gradientUnits="userSpaceOnUse">
<stop stop-color="#DDC385"/>
<stop offset="0.63" stop-color="#CEAE57"/>
<stop offset="0.79" stop-color="#CBAA51"/>
<stop offset="0.98" stop-color="#C4A241"/>
<stop offset="1" stop-color="#C4A140"/>
</linearGradient>
<linearGradient id="paint25_linear_10025_2801" x1="-46.8554" y1="237.792" x2="279.496" y2="-3.82935" gradientUnits="userSpaceOnUse">
<stop stop-color="#DDC385"/>
<stop offset="0.63" stop-color="#CEAE57"/>
<stop offset="0.79" stop-color="#CBAA51"/>
<stop offset="0.98" stop-color="#C4A241"/>
<stop offset="1" stop-color="#C4A140"/>
</linearGradient>
<linearGradient id="paint26_linear_10025_2801" x1="-37.7893" y1="250.036" x2="288.559" y2="8.41836" gradientUnits="userSpaceOnUse">
<stop stop-color="#DDC385"/>
<stop offset="0.63" stop-color="#CEAE57"/>
<stop offset="0.79" stop-color="#CBAA51"/>
<stop offset="0.98" stop-color="#C4A241"/>
<stop offset="1" stop-color="#C4A140"/>
</linearGradient>
<linearGradient id="paint27_linear_10025_2801" x1="-63.4824" y1="215.334" x2="262.865" y2="-26.284" gradientUnits="userSpaceOnUse">
<stop stop-color="#DDC385"/>
<stop offset="0.63" stop-color="#CEAE57"/>
<stop offset="0.79" stop-color="#CBAA51"/>
<stop offset="0.98" stop-color="#C4A241"/>
<stop offset="1" stop-color="#C4A140"/>
</linearGradient>
<linearGradient id="paint28_linear_10025_2801" x1="-55.318" y1="226.363" x2="271.03" y2="-15.2543" gradientUnits="userSpaceOnUse">
<stop stop-color="#DDC385"/>
<stop offset="0.63" stop-color="#CEAE57"/>
<stop offset="0.79" stop-color="#CBAA51"/>
<stop offset="0.98" stop-color="#C4A241"/>
<stop offset="1" stop-color="#C4A140"/>
</linearGradient>
<linearGradient id="paint29_linear_10025_2801" x1="-48.3625" y1="235.754" x2="277.985" y2="-5.86363" gradientUnits="userSpaceOnUse">
<stop stop-color="#DDC385"/>
<stop offset="0.63" stop-color="#CEAE57"/>
<stop offset="0.79" stop-color="#CBAA51"/>
<stop offset="0.98" stop-color="#C4A241"/>
<stop offset="1" stop-color="#C4A140"/>
</linearGradient>
<linearGradient id="paint30_linear_10025_2801" x1="-41.2426" y1="245.375" x2="285.105" y2="3.7571" gradientUnits="userSpaceOnUse">
<stop stop-color="#DDC385"/>
<stop offset="0.63" stop-color="#CEAE57"/>
<stop offset="0.79" stop-color="#CBAA51"/>
<stop offset="0.98" stop-color="#C4A241"/>
<stop offset="1" stop-color="#C4A140"/>
</linearGradient>
<linearGradient id="paint31_linear_10025_2801" x1="-34.8502" y1="254.007" x2="291.497" y2="12.3896" gradientUnits="userSpaceOnUse">
<stop stop-color="#DDC385"/>
<stop offset="0.63" stop-color="#CEAE57"/>
<stop offset="0.79" stop-color="#CBAA51"/>
<stop offset="0.98" stop-color="#C4A241"/>
<stop offset="1" stop-color="#C4A140"/>
</linearGradient>
<linearGradient id="paint32_linear_10025_2801" x1="-95.7312" y1="171.773" x2="230.616" y2="-69.8489" gradientUnits="userSpaceOnUse">
<stop stop-color="#DDC385"/>
<stop offset="0.63" stop-color="#CEAE57"/>
<stop offset="0.79" stop-color="#CBAA51"/>
<stop offset="0.98" stop-color="#C4A241"/>
<stop offset="1" stop-color="#C4A140"/>
</linearGradient>
<linearGradient id="paint33_linear_10025_2801" x1="-41.1405" y1="245.508" x2="285.211" y2="3.89" gradientUnits="userSpaceOnUse">
<stop stop-color="#DDC385"/>
<stop offset="0.63" stop-color="#CEAE57"/>
<stop offset="0.79" stop-color="#CBAA51"/>
<stop offset="0.98" stop-color="#C4A241"/>
<stop offset="1" stop-color="#C4A140"/>
</linearGradient>
</defs>
</svg>
