<svg width="65" height="53" viewBox="0 0 65 53" fill="none" xmlns="http://www.w3.org/2000/svg">
<g clip-path="url(#clip0_10081_2759)">
<path d="M26.0484 40.6028C30.3782 42.5247 29.1161 47.9268 25.4349 49.1042C22.6126 50.0046 21.1226 49.1389 19.2995 49.7276C17.4939 50.2989 16.7927 51.8746 13.9705 52.7749C10.2717 53.9523 6.06458 50.3163 8.41356 46.2473C11.3585 41.1915 11.0079 36.1356 14.4613 35.0275C17.9322 33.9193 20.6493 38.2134 26.0309 40.6028H26.0484Z" fill="url(#paint0_linear_10081_2759)"/>
<path d="M29.5028 32.7766C29.941 35.2699 28.6088 37.5727 26.5578 37.919C24.4893 38.2653 22.4734 36.5339 22.0351 34.0406C21.5092 31.0451 22.6311 27.5476 24.6996 27.184C26.7681 26.8377 28.9594 29.5214 29.5203 32.7593L29.5028 32.7766Z" fill="url(#paint1_linear_10081_2759)"/>
<path d="M4.59411 32.1706C3.29691 29.1405 3.68256 25.7123 5.61083 24.8985C7.53909 24.102 10.3964 26.4395 11.5884 29.2617C12.5876 31.5992 11.8339 34.1445 9.88807 34.9409C7.9598 35.7374 5.5933 34.5081 4.59411 32.1706Z" fill="url(#paint2_linear_10081_2759)"/>
<path d="M13.3941 28.6904C12.6929 25.7296 13.6045 22.1628 15.6379 21.6953C17.6714 21.2278 20.0203 23.7903 20.7741 26.9935C21.3526 29.4522 20.1606 31.8416 18.1271 32.3091C16.0937 32.7766 13.9551 31.1663 13.3766 28.6904H13.3941Z" fill="url(#paint3_linear_10081_2759)"/>
<path d="M6.43397 44.3774C4.55829 45.2951 2.12167 44.1869 0.982242 41.9187C-0.49025 38.9752 -0.314954 35.5123 1.56072 34.612C3.43639 33.6943 6.41644 35.8759 7.78375 38.6116C8.90565 40.8798 8.30964 43.4597 6.43397 44.3774Z" fill="url(#paint4_linear_10081_2759)"/>
<path d="M61.1965 19.3232C65.4562 21.401 64.0012 26.7512 60.2674 27.8074C57.4101 28.6038 55.9551 27.6862 54.1145 28.2056C52.2914 28.725 51.5201 30.266 48.6803 31.0625C44.9465 32.1014 40.8621 28.3095 43.3863 24.3271C46.5066 19.3925 46.3488 14.3193 49.8548 13.3497C53.3607 12.3627 55.92 16.7607 61.1965 19.3405V19.3232Z" fill="url(#paint5_linear_10081_2759)"/>
<path d="M64.9474 11.6182C65.2804 14.1288 63.878 16.3797 61.8095 16.6567C59.741 16.9337 57.7777 15.1157 57.4271 12.6051C57.024 9.59234 58.2686 6.12942 60.3371 5.85239C62.4056 5.57535 64.5091 8.34569 64.9474 11.6008V11.6182Z" fill="url(#paint6_linear_10081_2759)"/>
<path d="M40.0905 10.1118C38.916 7.04715 39.4243 3.61886 41.3701 2.89165C43.3335 2.16443 46.0856 4.60579 47.1724 7.4627C48.084 9.8348 47.225 12.3454 45.2617 13.0726C43.2984 13.7998 40.9845 12.4839 40.0729 10.1118H40.0905Z" fill="url(#paint7_linear_10081_2759)"/>
<path d="M49.0147 6.94327C48.4362 3.94784 49.4705 0.432977 51.5215 0.0347413C53.5724 -0.363495 55.8338 2.28564 56.4648 5.52347C56.9557 8.01677 55.676 10.3369 53.625 10.7352C51.574 11.1334 49.5055 9.43657 49.0147 6.94327Z" fill="url(#paint8_linear_10081_2759)"/>
<path d="M41.4595 22.3706C39.5487 23.219 37.1472 22.0243 36.1129 19.7215C34.7631 16.7261 35.0612 13.2805 36.9719 12.432C38.8826 11.5836 41.775 13.8865 43.0371 16.6568C44.0889 18.9596 43.3702 21.5222 41.4595 22.3706Z" fill="url(#paint9_linear_10081_2759)"/>
</g>
<defs>
<linearGradient id="paint0_linear_10081_2759" x1="28.783" y1="43.9272" x2="7.74743" y2="43.9272" gradientUnits="userSpaceOnUse">
<stop stop-color="#DDC385"/>
<stop offset="0.63" stop-color="#CEAE57"/>
<stop offset="0.79" stop-color="#CBAA51"/>
<stop offset="0.98" stop-color="#C4A241"/>
<stop offset="1" stop-color="#C4A140"/>
</linearGradient>
<linearGradient id="paint1_linear_10081_2759" x1="29.5904" y1="32.5688" x2="21.8949" y2="32.5688" gradientUnits="userSpaceOnUse">
<stop stop-color="#DDC385"/>
<stop offset="0.63" stop-color="#CEAE57"/>
<stop offset="0.79" stop-color="#CBAA51"/>
<stop offset="0.98" stop-color="#C4A241"/>
<stop offset="1" stop-color="#C4A140"/>
</linearGradient>
<linearGradient id="paint2_linear_10081_2759" x1="12.0267" y1="29.9716" x2="3.84033" y2="29.9716" gradientUnits="userSpaceOnUse">
<stop stop-color="#DDC385"/>
<stop offset="0.63" stop-color="#CEAE57"/>
<stop offset="0.79" stop-color="#CBAA51"/>
<stop offset="0.98" stop-color="#C4A241"/>
<stop offset="1" stop-color="#C4A140"/>
</linearGradient>
<linearGradient id="paint3_linear_10081_2759" x1="20.9319" y1="27.0108" x2="13.1662" y2="27.0108" gradientUnits="userSpaceOnUse">
<stop stop-color="#DDC385"/>
<stop offset="0.63" stop-color="#CEAE57"/>
<stop offset="0.79" stop-color="#CBAA51"/>
<stop offset="0.98" stop-color="#C4A241"/>
<stop offset="1" stop-color="#C4A140"/>
</linearGradient>
<linearGradient id="paint4_linear_10081_2759" x1="8.3447" y1="39.5466" x2="0.000579908" y2="39.5466" gradientUnits="userSpaceOnUse">
<stop stop-color="#DDC385"/>
<stop offset="0.63" stop-color="#CEAE57"/>
<stop offset="0.79" stop-color="#CBAA51"/>
<stop offset="0.98" stop-color="#C4A241"/>
<stop offset="1" stop-color="#C4A140"/>
</linearGradient>
<linearGradient id="paint5_linear_10081_2759" x1="63.7909" y1="22.1974" x2="42.5975" y2="22.1974" gradientUnits="userSpaceOnUse">
<stop stop-color="#DDC385"/>
<stop offset="0.63" stop-color="#CEAE57"/>
<stop offset="0.79" stop-color="#CBAA51"/>
<stop offset="0.98" stop-color="#C4A241"/>
<stop offset="1" stop-color="#C4A140"/>
</linearGradient>
<linearGradient id="paint6_linear_10081_2759" x1="65" y1="11.2719" x2="57.357" y2="11.2719" gradientUnits="userSpaceOnUse">
<stop stop-color="#DDC385"/>
<stop offset="0.63" stop-color="#CEAE57"/>
<stop offset="0.79" stop-color="#CBAA51"/>
<stop offset="0.98" stop-color="#C4A241"/>
<stop offset="1" stop-color="#C4A140"/>
</linearGradient>
<linearGradient id="paint7_linear_10081_2759" x1="47.5406" y1="8.01677" x2="39.4594" y2="8.01677" gradientUnits="userSpaceOnUse">
<stop stop-color="#DDC385"/>
<stop offset="0.63" stop-color="#CEAE57"/>
<stop offset="0.79" stop-color="#CBAA51"/>
<stop offset="0.98" stop-color="#C4A241"/>
<stop offset="1" stop-color="#C4A140"/>
</linearGradient>
<linearGradient id="paint8_linear_10081_2759" x1="56.5525" y1="5.38495" x2="48.8394" y2="5.38495" gradientUnits="userSpaceOnUse">
<stop stop-color="#DDC385"/>
<stop offset="0.63" stop-color="#CEAE57"/>
<stop offset="0.79" stop-color="#CBAA51"/>
<stop offset="0.98" stop-color="#C4A241"/>
<stop offset="1" stop-color="#C4A140"/>
</linearGradient>
<linearGradient id="paint9_linear_10081_2759" x1="43.5104" y1="17.436" x2="35.2715" y2="17.436" gradientUnits="userSpaceOnUse">
<stop stop-color="#DDC385"/>
<stop offset="0.63" stop-color="#CEAE57"/>
<stop offset="0.79" stop-color="#CBAA51"/>
<stop offset="0.98" stop-color="#C4A241"/>
<stop offset="1" stop-color="#C4A140"/>
</linearGradient>
<clipPath id="clip0_10081_2759">
<rect width="65" height="53" fill="white"/>
</clipPath>
</defs>
</svg>
